<?xml version="1.0" encoding="UTF-8"?><svg id="Layer_1" xmlns="http://www.w3.org/2000/svg" viewBox="0 0 500 500"><defs><style>.cls-1{fill:#fff;}</style></defs><rect class="cls-1" width="500" height="500" rx="20" ry="20"/><g><path d="m88.68,232.22h-33.53v-19.04h58.2c13.67-9.93,28.38-19.7,44.01-29.14-6.75-2.95-14.59-4.46-22.87-4.42H0v141.41h12.67c12.25-27.29,38.91-58.34,76-88.8h0Z"/><path d="m487.05,179.61c-17.17,37.64-61.59,82.37-122.87,122.77l8.18,18.64h65.55l62.08-141.41h-12.95.01Z"/><path d="m119.01,232.22c4.73,0,8.63-4.84,8.63-9.57s-3.89-9.47-8.63-9.47h-5.67c-8.66,6.29-16.89,12.66-24.67,19.04h30.34Z"/><path d="m129.32,268.42H55.14v18.94h74.18c4.73,0,8.63-4.73,8.63-9.47s-3.89-9.47-8.63-9.47Z"/><path d="m310.3,321.02h-65.55l-62.08-141.41h62.08l32.72,89.54,32.83-89.54h62.08l32.72,89.54,32.83-89.54h49.13c8.87-19.45,10.48-37,3.36-51.08-25.57-50.6-153.93-37.24-286.71,29.85-16.18,8.17-31.67,16.77-46.36,25.65,13.24,5.79,22.27,17.15,22.06,33.46,0,13.57-6.31,23.99-16.41,30.41,15.99,5.16,26.73,17.36,26.73,35.14.32,24.73-20.52,37.98-44.82,37.98H12.68c-8.62,19.19-10.12,36.52-3.08,50.45,25.57,50.6,153.93,37.24,286.71-29.85,24.31-12.28,47.07-25.51,67.89-39.24l-22.86-52.06-31.04,70.71h0Z"/></g></svg>