<?xml version="1.0" encoding="UTF-8"?><svg id="Layer_1" xmlns="http://www.w3.org/2000/svg" viewBox="0 0 1267.41 344"><defs><style>.cls-1{fill:none;stroke:#000;stroke-miterlimit:10;stroke-width:10px;}</style></defs><g><path d="m112.71,214.43c.9,2.23,22.83,43.27,9,40.09-18.59-6.71-37.09-13.84-54.52-23.24-20.76-13.51-47.15-31.25-47.28-59.09-.13-27.8,26.07-45.59,46.74-59.14,16.2-8.46,33-15.2,50.12-21.53,13.51-3.43-8.54,37.03-9.42,39.14-5.25,12.67-9.38,26.66-16.63,38.57,11.84,11.17,16.24,30.91,21.99,45.2Zm-58.91-79.11c-5.06,7.35-6.99,11.09-9.51,18.67,9.29-.93,18.6-1.78,27.91-2.56,2.19-.18,5.5-5.93,7.67-11.34,2.17-5.41,3.27-10.43,1.13-10.05-11.53,2.06-16.98,3.11-27.2,5.28Zm32.09,79.82c2.17.38,1.12-4.75-1.05-10.26-2.17-5.51-5.48-11.24-7.71-11.43-10.91-.95-21.81-1.91-32.71-3.03,2.56,7.53,4.5,11.25,9.58,18.56,10.59,2.28,21.23,4.23,31.88,6.16Z"/><path d="m171.75,74.5c-27.87,41.68-40.33,84.43-29.48,134.12,21.82,1.9,43.65,3.59,65.5,5.13,5.36,24.68,13.48,47.09,24.59,69.76-29.57-6.14-58.8-13.17-87.77-21.72-46.59-59.32-46.61-120.24,0-179.59,8.99-2.75,18.06-5.32,27.16-7.71Z"/><path d="m334.28,162.22c-.17,7.81-.17,11.75,0,19.56.72,31.44,14.38,127.44-43.13,117.62-54.58-9.32-85.86-69.04-90-119.05-.26-6.67-.26-10.03,0-16.7,4.14-50.05,35.55-109.62,90-119.05,57.38-9.94,43.81,86.32,43.13,117.62Zm-40.22,6.51c-.17-17.59,1.48-50.39-24.79-48.22-25.58,2.11-30.8,27.08-32.4,48.44-.03,2.37-.03,3.56,0,5.94,1.58,21.38,6.77,46.5,32.41,48.62,26.32,2.17,24.61-30.84,24.78-48.42-.02-2.54-.02-3.81,0-6.35Z"/><path d="m491.01,197.03c-.88,42.48-1.7,124.67-63.25,119.61-63.81-5.25-86.32-81.72-88.93-134.83-.17-7.84-.17-11.79,0-19.64,2.62-53.26,25.49-129.62,88.93-134.83,61.12-5.02,62.37,77.03,63.25,119.61-15.35.14-30.71.29-46.06.46-3.33-17.76-9.04-34.64-29.67-33.54-28.68,1.53-33.45,30.7-34.67,54.8-.02,2.73-.02,4.1,0,6.83,1.23,24,6.14,53.28,34.69,54.81,20.64,1.11,26.37-16,29.65-33.75,15.35.17,30.71.32,46.06.46Z"/><path d="m544.07,218.88c.89,32.81,2.49,65.55,4.81,98.29-14.49-.51-28.98-1.1-43.46-1.79-10.42-95.57-10.42-191.18,0-286.75,14.48-.69,28.97-1.29,43.46-1.79-2.32,32.74-3.91,65.48-4.81,98.29,8.13-.08,12.21-.11,20.42-.18,15.17-33.18,30.65-66.22,45.85-99.38,19.84-.19,39.69-.13,59.54.14-19.56,49.21-41.02,97.6-61.82,146.29,20.8,48.69,42.26,97.08,61.82,146.29-19.84.27-39.69.33-59.54.14-15.21-33.16-30.68-66.2-45.85-99.38-8.2-.06-12.29-.1-20.42-.18Z"/><path d="m863.97,36.35c14.71,1.44,29.4,2.98,44.08,4.66,8.84,92.36-11.6,181.45-44.25,267.43-16.11,1.55-32.24,2.88-48.38,4.07-.58-47.12-5.48-93.61-13.26-140.07-8.77,48.34-20.58,95.85-34.17,143.04-17.19.92-34.39,1.59-51.59,2.17-10.71-98.17-30.19-194.92-50.11-291.56,16.72.21,33.45.56,50.17,1.1,13.16,61.09,24.53,122.43,32.31,184.45,10.26-60.39,17.34-121.04,19.32-182.29,15.83.84,31.65,1.8,47.46,2.96,17.59,58.25,30.7,117.09,36.79,177.69,10.9-57.62,15.64-115.08,11.63-173.65Z"/><path d="m904.99,40.65c36.25,4.31,72.31,9.5,108.25,15.93,8.38,19.03,15.01,38.07,20.03,58.24-24.93-2.04-49.86-3.85-74.82-5.45,1.63,10.97,2.93,21.79,3.95,32.84,25.3.76,50.6,1.61,75.89,2.57,1.56,18.53,1.55,36.42-.06,54.96-25.29.98-50.58,1.85-75.88,2.62-1.04,11.04-2.36,21.86-4,32.83,24.95-1.62,49.88-3.44,74.8-5.5-5.08,20.24-11.77,39.32-20.22,58.38-35.9,6.47-71.93,11.7-108.15,16.03,23.08-87.8,23.16-175.63.21-263.46Z"/><path d="m1055.09,64.97c11.88,2.6,23.72,5.4,35.5,8.43,44.71,54.59,79.14,121.02,36.94,187.12-10.02,3.16-20.12,5.98-30.24,8.77,5.44-10.5,9.49-20.02,13.22-31.24-13.42,2.18-26.88,4.14-40.35,6.04-7.24,12.8-14.96,25.09-23.24,37.25-12.19,2.6-24.42,5-36.67,7.24,42.28-67.97,71.82-144.24,44.84-223.6Zm37.36,125.82c9.38-.34,13.98-.51,22.95-.86-2.3-21.98-7.8-41.66-16.14-62.06.97,21.82-1.46,41.8-6.82,62.93Z"/><path d="m1182.49,104.13c21.85,10.89,53.01,28.85,62.27,52.81,3.55,9.19,2.49,17.82-1.62,25.69-4.06,7.77-10.33,14.05-16.39,18.68-4.71,13.8-14.97,21.76-26.39,29.89-7.43,3.96-11.44,5.91-20.03,9.71,9.62-8.01,17.43-18.34,21.24-30.36-8.37,1.6-12.76,2.39-21.9,3.93-7.4,14.55-18.16,26.71-29.41,38.36-9.4,3.36-14.34,5-24.67,8.2,47.01-58.65,47.17-119.05.21-177.82,19.22,6.12,38.25,12.68,56.69,20.92Zm.97,33.49c3.76,8.52,6.39,18.92,6.93,28.24,10.11.23,20.23.49,30.34.77,1.43.04,2.55-1.13,3.14-3.43.62-2.41.48-5.22-.56-8.47-2.14-6.71-7.32-12.31-10.11-12.75-9.89-1.59-19.81-3.04-29.74-4.35Z"/></g><ellipse class="cls-1" cx="633.71" cy="172" rx="628.71" ry="167"/></svg>